<svg width="25" height="25" viewBox="0 0 25 25" fill="none" xmlns="http://www.w3.org/2000/svg">
<path d="M12.5073 2.25098C15.8491 2.25098 16.2449 2.26562 17.5591 2.32422C18.7805 2.37793 19.4401 2.58301 19.8798 2.75391C20.4612 2.97852 20.8814 3.25195 21.3162 3.68652C21.7559 4.12598 22.0246 4.54102 22.2494 5.12207C22.4204 5.56152 22.6256 6.22559 22.6793 7.44141C22.7379 8.75977 22.7526 9.15527 22.7526 12.4902C22.7526 15.8301 22.7379 16.2256 22.6793 17.5391C22.6256 18.7598 22.4204 19.4189 22.2494 19.8584C22.0246 20.4395 21.751 20.8594 21.3162 21.2939C20.8765 21.7334 20.4612 22.002 19.8798 22.2266C19.4401 22.3975 18.7757 22.6025 17.5591 22.6563C16.24 22.7148 15.8442 22.7295 12.5073 22.7295C9.16553 22.7295 8.76979 22.7148 7.45554 22.6563C6.23412 22.6025 5.57456 22.3975 5.13484 22.2266C4.55345 22.002 4.13328 21.7285 3.69846 21.2939C3.25875 20.8545 2.99003 20.4395 2.76529 19.8584C2.59429 19.4189 2.3891 18.7549 2.33535 17.5391C2.27672 16.2207 2.26207 15.8252 2.26207 12.4902C2.26207 9.15039 2.27672 8.75488 2.33535 7.44141C2.3891 6.2207 2.59429 5.56152 2.76529 5.12207C2.99003 4.54102 3.26363 4.12109 3.69846 3.68652C4.13817 3.24707 4.55345 2.97852 5.13484 2.75391C5.57456 2.58301 6.23901 2.37793 7.45554 2.32422C8.76979 2.26562 9.16553 2.25098 12.5073 2.25098ZM12.5073 0C9.11178 0 8.68673 0.0146484 7.35294 0.0732422C6.02404 0.131836 5.11042 0.34668 4.31894 0.654297C3.49326 0.976562 2.79461 1.40137 2.10084 2.09961C1.40219 2.79297 0.977135 3.49121 0.65468 4.31152C0.346883 5.10742 0.131913 6.01562 0.0732851 7.34375C0.014657 8.68164 0 9.10645 0 12.5C0 15.8936 0.014657 16.3184 0.0732851 17.6514C0.131913 18.9795 0.346883 19.8926 0.65468 20.6836C0.977135 21.5088 1.40219 22.207 2.10084 22.9004C2.79461 23.5938 3.49326 24.0234 4.31405 24.3408C5.11042 24.6484 6.01915 24.8633 7.34806 24.9219C8.68184 24.9805 9.1069 24.9951 12.5024 24.9951C15.898 24.9951 16.323 24.9805 17.6568 24.9219C18.9857 24.8633 19.8994 24.6484 20.6908 24.3408C21.5116 24.0234 22.2103 23.5938 22.904 22.9004C23.5978 22.207 24.0278 21.5088 24.3453 20.6885C24.6531 19.8926 24.8681 18.9844 24.9267 17.6563C24.9853 16.3232 25 15.8984 25 12.5049C25 9.11133 24.9853 8.68652 24.9267 7.35352C24.8681 6.02539 24.6531 5.11231 24.3453 4.32129C24.0375 3.49121 23.6125 2.79297 22.9138 2.09961C22.2201 1.40625 21.5214 0.976563 20.7006 0.65918C19.9042 0.351562 18.9955 0.136719 17.6666 0.078125C16.3279 0.0146484 15.9029 0 12.5073 0Z" fill="#A0A0A0"/>
<path d="M12.5074 6.0791C8.96043 6.0791 6.08276 8.95508 6.08276 12.5C6.08276 16.0449 8.96043 18.9209 12.5074 18.9209C16.0544 18.9209 18.9321 16.0449 18.9321 12.5C18.9321 8.95508 16.0544 6.0791 12.5074 6.0791ZM12.5074 16.665C10.2063 16.665 8.33995 14.7998 8.33995 12.5C8.33995 10.2002 10.2063 8.33496 12.5074 8.33496C14.8086 8.33496 16.6749 10.2002 16.6749 12.5C16.6749 14.7998 14.8086 16.665 12.5074 16.665Z" fill="#A0A0A0"/>
<path d="M20.6841 5.8252C20.6841 6.65528 20.0103 7.32422 19.1851 7.32422C18.355 7.32422 17.686 6.65039 17.686 5.8252C17.686 4.99512 18.3599 4.32617 19.1851 4.32617C20.0103 4.32617 20.6841 5 20.6841 5.8252Z" fill="#A0A0A0"/>
</svg>
