<svg width="33" height="33" viewBox="0 0 33 33" fill="none" xmlns="http://www.w3.org/2000/svg">
<path d="M11 11L11 9.625C11 6.58743 13.4624 4.125 16.5 4.125V4.125C19.5376 4.125 22 6.58743 22 9.625L22 11" stroke="#222222" stroke-width="1.5" stroke-linecap="round"/>
<path d="M20.625 19.25V16.5" stroke="#222222" stroke-width="1.5" stroke-linecap="round"/>
<path d="M12.375 19.25V16.5" stroke="#222222" stroke-width="1.5" stroke-linecap="round"/>
<path d="M5.5 15C5.5 13.1144 5.5 12.1716 6.08579 11.5858C6.67157 11 7.61438 11 9.5 11H23.5C25.3856 11 26.3284 11 26.9142 11.5858C27.5 12.1716 27.5 13.1144 27.5 15V20.875C27.5 24.6462 27.5 26.5319 26.3284 27.7034C25.1569 28.875 23.2712 28.875 19.5 28.875H13.5C9.72876 28.875 7.84315 28.875 6.67157 27.7034C5.5 26.5319 5.5 24.6462 5.5 20.875V15Z" stroke="#222222" stroke-width="1.5"/>
</svg>
