<svg width="25" height="27" viewBox="0 0 25 27" fill="none" xmlns="http://www.w3.org/2000/svg">
<path d="M24.751 8.077C24.751 8.077 24.5068 6.22078 23.7549 5.40572C22.8027 4.33301 21.7383 4.32775 21.25 4.26465C17.7539 3.99121 12.5049 3.99121 12.5049 3.99121H12.4951C12.4951 3.99121 7.24609 3.99121 3.75 4.26465C3.26172 4.32775 2.19727 4.33301 1.24512 5.40572C0.493164 6.22078 0.253906 8.077 0.253906 8.077C0.253906 8.077 0 10.2592 0 12.4362V14.4765C0 16.6535 0.249023 18.8357 0.249023 18.8357C0.249023 18.8357 0.493164 20.6919 1.24023 21.507C2.19238 22.5797 3.44238 22.5429 3.99902 22.6586C6.00098 22.8637 12.5 22.9268 12.5 22.9268C12.5 22.9268 17.7539 22.9162 21.25 22.6481C21.7383 22.585 22.8027 22.5797 23.7549 21.507C24.5068 20.6919 24.751 18.8357 24.751 18.8357C24.751 18.8357 25 16.6587 25 14.4765V12.4362C25 10.2592 24.751 8.077 24.751 8.077ZM9.91699 16.9532V9.38634L16.6699 13.1829L9.91699 16.9532Z" fill="#A0A0A0"/>
</svg>
