<?xml version="1.0" encoding="utf-8"?>
<!-- Generator: Adobe Illustrator 26.0.3, SVG Export Plug-In . SVG Version: 6.00 Build 0)  -->
<svg version="1.1" id="레이어_1" xmlns="http://www.w3.org/2000/svg" xmlns:xlink="http://www.w3.org/1999/xlink" x="0px"
	 y="0px" viewBox="0 0 595.28 217" style="enable-background:new 0 0 595.28 217;" xml:space="preserve">
<style type="text/css">
	.st0{fill-rule:evenodd;clip-rule:evenodd;}
</style>
<g>
	<path class="st0" d="M476,164.37V217h-40.98V46.74h40.89v8.94c10-8.58,22.19-13.55,34.64-13.6c39.61-0.15,55.5,25.76,55.68,70.84
		c0,39.54-23.82,63.36-54.15,63.73C499.81,176.65,483.14,170.77,476,164.37L476,164.37z M45.69,100.63H3.42
		c-4.59,52.17,24.2,83.87,74.43,83.87c46.12,0,68.89-21.01,68.89-66.88V0h-41.92v117.3c-0.24,18.15-11.77,30.52-30.59,29.47
		c-13.62-0.75-28-7.34-28.53-31.46V100.63L45.69,100.63z M336.86,124.66h85.22c5.8-52.68-23.04-81.95-64.01-81.95
		c-35.47,0-62.71,27.82-62.71,71.32c0,44.51,27.45,68.79,62.93,68.79c25.75,0,53.63-10.87,61.23-43.75H377.5
		c-3.17,7.84-9.5,11.64-16.48,11.64C349.41,150.7,337.71,140.72,336.86,124.66C336.86,124.66,337.71,140.72,336.86,124.66
		L336.86,124.66z M475.82,103.93l0.04,14.15c0,20.47,11.29,28.79,25.21,28.79c13.92,0,23.67-18.24,23.67-34.9v-7.93
		c0-20.47-9.75-31.66-23.67-31.66C487.14,72.37,475.82,83.46,475.82,103.93L475.82,103.93z M336.86,97.84h42.33
		c0-12.13-9.08-23.01-19.42-23.01C346.66,74.83,338.06,82.69,336.86,97.84L336.86,97.84z M201.45,124.66h85.21
		c5.8-52.68-23.04-81.95-64-81.95c-35.47,0-62.71,27.82-62.71,71.32c0,44.51,27.45,68.79,62.93,68.79
		c25.75,0,53.63-10.87,61.23-43.75h-42.02c-3.17,7.84-9.51,11.64-16.47,11.64C214,150.7,202.3,140.72,201.45,124.66
		C201.45,124.66,202.3,140.72,201.45,124.66L201.45,124.66z M201.45,97.84h42.33c0-12.13-9.09-23.01-19.43-23.01
		C211.25,74.83,202.65,82.69,201.45,97.84L201.45,97.84z M579.52,184.97c7.65,0,13.86,6.2,13.86,13.85
		c0,7.74-6.21,13.94-13.86,13.94c-7.69,0-13.9-6.2-13.9-13.94C565.62,191.17,571.83,184.97,579.52,184.97v-1.9
		c-8.77,0-15.84,7.07-15.84,15.76c0,8.77,7.07,15.84,15.84,15.84c8.73,0,15.76-7.07,15.76-15.84c0-8.69-7.03-15.76-15.76-15.76
		V184.97L579.52,184.97z M575.8,191.59h5.04c2.19,0,4.59,0.33,4.59,3.06c0,3.6-3.85,3.18-6.33,3.18h-3.31v1.7h3.97l5.05,8.14h2.56
		l-5.33-8.14c3.14-0.09,5.58-1.37,5.58-4.84c0-1.49-0.66-3.06-1.99-3.81c-1.32-0.78-2.81-0.87-4.3-0.87h-7.69v17.66h2.15V191.59
		L575.8,191.59z"/>
</g>
</svg>
